<svg width="120" height="150" viewBox="0 0 468 200" fill="none" xmlns="http://www.w3.org/2000/svg">
<path d="M81.5925 144.456C80.9952 145.053 79.1605 145.352 76.0885 145.352C73.9552 145.779 71.4378 145.437 68.5365 144.328L65.8485 143.432L61.8805 141.512C61.5392 141.512 61.3258 141.512 61.2405 141.512C61.1552 141.597 60.9418 141.512 60.6005 141.256C60.0885 140.829 59.4912 140.488 58.8085 140.232C57.1018 139.037 55.9072 137.971 55.2245 137.032C52.4938 132.68 51.1285 129.053 51.1285 126.152C51.1285 125.811 51.5552 125.171 52.4085 124.232C54.1152 122.184 56.2485 121.16 58.8085 121.16C59.8325 121.245 60.6432 121.587 61.2405 122.184L65.4645 127.688C66.1472 128.371 66.9152 129.053 67.7685 129.736L69.4325 131.528L71.9925 133.704C72.3338 133.875 72.6752 133.96 73.0165 133.96C73.3578 134.131 74.2965 134.344 75.8325 134.6C77.5392 134.173 78.9898 133.704 80.1845 133.192C80.9525 132.424 81.6352 131.827 82.2325 131.4L84.0245 129.352C84.1952 129.181 84.4938 128.499 84.9205 127.304C84.9205 126.195 84.9205 125.469 84.9205 125.128C85.0058 124.701 84.8778 123.635 84.5365 121.928C84.4512 121.672 83.8538 120.989 82.7445 119.88C82.2325 118.856 81.5072 117.747 80.5685 116.552C80.0565 116.04 77.5818 114.675 73.1445 112.456L70.7125 111.048L68.4085 109C67.2992 108.659 65.7205 107.507 63.6725 105.544C62.8192 104.947 62.1792 104.477 61.7525 104.136C61.2405 103.965 59.8325 102.515 57.5285 99.784C57.5285 99.6133 56.8032 97.992 55.3525 94.92L54.2005 89.928L54.7125 86.6C54.2005 84.3813 54.0298 82.7173 54.2005 81.608C54.5418 81.096 54.9685 80.072 55.4805 78.536C55.2245 77.256 56.3765 74.7387 58.9365 70.984C58.9365 70.472 60.8138 68.424 64.5685 64.84L68.9205 62.536L70.9685 61.64C71.7365 61.5547 72.7605 61.4267 74.0405 61.256C75.4058 61.0853 77.4112 61.0853 80.0565 61.256C82.7018 61.4267 84.3658 61.768 85.0485 62.28C85.6458 62.536 87.3525 63.688 90.1685 65.736C93.9232 69.064 95.9712 72.0507 96.3125 74.696C97.7632 79.048 97.8485 83.6987 96.5685 88.648C96.5685 88.9893 95.3738 89.672 92.9845 90.696L89.7845 90.568C87.0538 90.2267 84.4512 88.8187 81.9765 86.344C81.2938 85.9173 80.7818 84.7227 80.4405 82.76C80.3552 80.712 79.9285 79.4747 79.1605 79.048C79.0752 78.9627 78.7338 78.1947 78.1365 76.744C76.6858 74.8667 75.7045 73.928 75.1925 73.928C74.7658 73.928 74.2538 74.056 73.6565 74.312C70.5845 76.7867 68.9632 79.56 68.7925 82.632C68.1952 85.1067 68.9632 88.136 71.0965 91.72C72.0352 93.0853 72.6325 93.768 72.8885 93.768C73.4005 94.6213 74.3818 95.688 75.8325 96.968L77.6245 98.888L83.0005 102.856L85.1765 105.032L87.6085 106.568C88.9738 107.165 90.2965 107.976 91.5765 109C93.2832 110.28 95.3738 112.669 97.8485 116.168C98.3605 116.936 99.0432 119.24 99.8965 123.08V128.072L99.2565 131.016C98.8298 131.443 98.3605 132.296 97.8485 133.576C97.8485 133.661 97.3792 134.813 96.4405 137.032C96.1845 137.459 95.1605 138.355 93.3685 139.72C90.8085 141.768 87.9498 143.304 84.7925 144.328C84.1098 144.499 83.0432 144.541 81.5925 144.456ZM124.811 91.208L123.403 108.616L124.171 106.824C124.512 106.056 125.749 104.264 127.883 101.448C127.883 101.192 129.205 98.9307 131.851 94.664L134.027 92.104L135.179 90.312C136.8 89.032 138.165 88.392 139.275 88.392C141.579 88.0507 144.053 88.7333 146.699 90.44C147.296 90.5253 148.064 91.1653 149.003 92.36C150.453 93.4693 151.093 95.048 150.923 97.096C150.923 97.2667 150.88 97.5227 150.795 97.864C149.173 111.176 148.32 120.52 148.235 125.896C148.149 131.187 148.576 135.624 149.515 139.208C150.197 142.195 149.088 144.285 146.187 145.48C145.419 145.992 144.224 146.077 142.603 145.736C141.152 145.736 140.043 145.523 139.275 145.096C138.592 144.755 137.867 143.901 137.099 142.536L136.458 139.976C136.117 139.293 135.947 138.355 135.947 137.16L135.435 133.448C135.52 133.277 135.562 132.168 135.562 130.12L135.691 126.792C135.435 125.597 135.477 123.251 135.819 119.752L136.075 114.248V111.048C136.16 110.792 135.904 110.195 135.307 109.256C133.088 110.963 130.613 116.68 127.883 126.408L124.555 136.648C123.019 142.109 121.355 145.053 119.562 145.48L118.155 145.736C116.96 145.736 115.339 145.395 113.291 144.712C111.669 142.92 110.859 141.128 110.859 139.336C111.029 138.995 111.072 138.611 110.987 138.184C110.731 137.075 110.816 135.539 111.243 133.576C111.157 133.32 111.115 132.979 111.115 132.552L111.243 130.632C111.072 130.205 110.901 129.011 110.731 127.048C110.56 125 110.56 123.464 110.731 122.44C110.56 122.099 110.816 120.947 111.499 118.984C110.816 117.96 110.432 116.808 110.347 115.528C110.005 112.029 109.877 109.427 109.963 107.72C110.133 105.928 110.219 104.264 110.219 102.728C110.048 101.192 110.005 99.3573 110.091 97.224L110.987 86.856L111.883 79.432C111.883 78.8347 111.669 77.9387 111.243 76.744C110.901 75.464 110.816 73.9707 110.987 72.264C111.157 70.5573 111.328 69.4907 111.499 69.064C111.755 68.552 112.096 67.272 112.523 65.224C112.523 63.5173 112.693 62.2373 113.035 61.384L113.803 59.08C113.888 58.4827 114.997 57.5013 117.131 56.136H118.539C121.867 56.392 124.299 56.9467 125.835 57.8C126.517 58.2267 126.688 59.72 126.347 62.28C126.176 65.864 126.048 68.0827 125.963 68.936C125.877 69.7893 125.664 73.5013 125.323 80.072C124.981 86.6427 124.811 90.3547 124.811 91.208ZM188.527 104.264C188.441 102.387 188.015 100.979 187.247 100.04C186.479 99.016 185.071 98.4187 183.023 98.248C182.425 98.6747 181.615 100.125 180.591 102.6C179.652 104.989 179.055 107.549 178.799 110.28C177.945 114.376 177.519 118.472 177.519 122.568C177.604 126.749 178.287 129.821 179.567 131.784C179.737 132.125 179.908 132.253 180.079 132.168C180.505 132.168 181.188 131.315 182.127 129.608C186.649 121.416 188.783 112.968 188.527 104.264ZM192.495 128.712L190.575 133.704C190.575 133.875 189.337 135.709 186.863 139.208C186.095 140.829 184.644 141.725 182.511 141.896C180.463 142.067 178.457 141.853 176.495 141.256C173.849 140.317 171.844 139.208 170.479 137.928C169.113 136.648 167.748 134.515 166.383 131.528C165.103 128.456 164.42 125.939 164.335 123.976C163.908 121.16 163.695 119.368 163.695 118.6V115.528C163.695 112.456 163.823 110.664 164.079 110.152C164.164 109.811 164.377 108.915 164.719 107.464C165.145 103.88 166.169 100.467 167.791 97.224C170.948 90.9947 174.191 87.7947 177.519 87.624H178.159C178.329 87.7093 178.585 87.752 178.927 87.752H180.591C183.577 88.008 185.412 88.264 186.095 88.52C187.375 88.8613 188.484 89.032 189.423 89.032L192.751 89.672C193.775 89.5867 195.097 89.8 196.719 90.312C198.425 90.824 199.321 91.208 199.407 91.464C199.577 91.72 199.833 92.6587 200.175 94.28C200.516 95.9013 200.729 97.096 200.815 97.864C200.985 98.5467 201.113 99.272 201.199 100.04C201.881 106.269 202.991 112.072 204.527 117.448C204.612 117.704 204.697 118.088 204.783 118.6C204.868 119.112 205.167 120.136 205.679 121.672C206.191 123.123 206.575 124.36 206.831 125.384C207.087 126.408 207.556 127.773 208.239 129.48C208.751 130.76 209.519 132.253 210.543 133.96C212.42 136.605 211.439 138.653 207.599 140.104C207.087 140.275 206.191 140.36 204.911 140.36C204.655 140.36 203.844 139.933 202.479 139.08C201.625 139.08 200.815 138.611 200.047 137.672L199.023 137.416C198.425 136.819 197.913 136.52 197.487 136.52C197.316 136.349 195.78 132.893 192.879 126.152C192.623 127.091 192.495 127.944 192.495 128.712ZM220.74 64.84L220.996 63.176C220.996 62.92 221.081 62.536 221.252 62.024C221.593 61.9387 221.764 61.64 221.764 61.128C221.764 60.616 221.849 60.1467 222.02 59.72C221.934 59.208 222.276 58.3973 223.044 57.288C223.812 56.0933 224.58 55.1973 225.348 54.6C225.86 54.6 226.201 54.5147 226.372 54.344H227.908C230.297 54.344 231.705 54.5147 232.132 54.856C233.07 55.2827 233.54 56.8187 233.54 59.464C233.625 59.72 233.668 60.36 233.668 61.384L233.54 62.28V63.304C233.54 63.7307 233.54 64.2 233.54 64.712C233.625 65.224 233.625 65.736 233.54 66.248V69.704C233.369 75.1653 233.284 78.792 233.284 80.584C233.284 82.2907 233.241 83.2293 233.156 83.4C233.241 83.8267 233.284 86.8987 233.284 92.616C233.54 96.8827 233.668 100.936 233.668 104.776V107.72C233.668 109.683 233.625 111.048 233.54 111.816L233.668 112.968C233.497 113.139 233.412 113.651 233.412 114.504V116.296L234.82 112.584C234.82 111.901 235.204 110.92 235.972 109.64L236.484 107.72C236.484 107.379 236.825 106.483 237.508 105.032C238.276 103.581 238.83 102.173 239.172 100.808L240.068 99.272C240.068 98.4187 240.238 97.8213 240.58 97.48L240.708 96.712C241.39 95.5173 241.732 94.7493 241.732 94.408L241.86 92.488C241.86 92.3173 241.945 92.104 242.116 91.848C242.713 91.1653 243.14 90.312 243.396 89.288C245.529 86.472 248.43 85.32 252.1 85.832C256.537 86.4293 258.756 89.2453 258.756 94.28V98.12C259.012 99.4 258.969 100.381 258.628 101.064L258.756 103.24V105.672L259.14 112.968V115.656C259.14 116.253 259.097 116.765 259.012 117.192C259.097 117.448 259.14 118.003 259.14 118.856C258.969 118.941 258.969 119.325 259.14 120.008C259.31 120.605 259.396 121.075 259.396 121.416C259.396 121.672 259.481 122.867 259.652 125C259.652 130.035 260.206 134.728 261.316 139.08L261.444 139.976V140.744C262.212 142.877 262.084 144.285 261.06 144.968C260.121 145.565 259.268 145.48 258.5 144.712C258.244 144.797 257.262 144.755 255.556 144.584C254.617 145.096 252.953 144.413 250.564 142.536C250.052 142.195 249.582 141.768 249.156 141.256C249.07 141.085 248.942 140.744 248.772 140.232C248.43 139.037 248.217 138.099 248.132 137.416C247.363 136.051 246.979 135.197 246.979 134.856L246.212 128.712C246.553 128.627 246.468 127.56 245.956 125.512C245.444 123.464 245.102 120.691 244.932 117.192V116.04C244.932 114.419 244.974 113.608 245.06 113.608C244.462 113.608 243.737 115.741 242.884 120.008L241.988 124.232V125.512C241.646 126.195 241.262 126.707 240.836 127.048L236.868 143.432C237.038 144.115 236.953 144.584 236.612 144.84C236.27 145.181 235.63 145.395 234.692 145.48H231.364C231.022 145.821 230.51 145.992 229.828 145.992C227.694 145.992 226.5 145.267 226.244 143.816C225.305 143.56 224.836 143.048 224.836 142.28V141.512C223.812 139.464 223.257 138.141 223.172 137.544C223.172 136.947 223.172 136.392 223.172 135.88C223.001 135.539 222.916 135.069 222.916 134.472C222.745 134.301 222.66 133.832 222.66 133.064C222.233 131.955 222.105 130.163 222.276 127.688L222.148 126.152C222.233 124.957 222.276 124.061 222.276 123.464V121.16L222.404 120.008V118.6C222.404 118.259 222.318 117.661 222.148 116.808C222.404 116.381 222.446 115.869 222.276 115.272V112.072C222.276 110.451 222.233 109.469 222.148 109.128V105.288C222.062 104.093 222.062 103.283 222.148 102.856L221.635 98.248C221.806 96.6267 221.721 95.048 221.38 93.512C221.465 93.1707 221.294 91.2933 220.868 87.88C220.526 84.4667 220.441 82.4613 220.612 81.864C220.612 81.2667 220.526 80.6267 220.356 79.944C220.27 79.2613 220.356 78.7493 220.612 78.408C220.612 78.3227 220.526 77.768 220.356 76.744C220.185 75.8053 220.185 74.7813 220.356 73.672C220.185 73.2453 220.185 72.5627 220.356 71.624C220.612 71.368 220.654 70.856 220.484 70.088V67.912L220.996 66.632C220.825 66.12 220.74 65.5227 220.74 64.84ZM296.372 94.024C296.201 93.5973 295.604 93.4267 294.58 93.512C293.641 93.5973 292.916 94.1093 292.404 95.048C288.905 100.595 287.028 106.525 286.772 112.84C289.673 113.523 292.148 112.243 294.196 109C296.841 100.637 297.566 95.6453 296.372 94.024ZM286.388 144.84L285.108 144.584L283.316 142.792C282.804 142.792 282.42 142.579 282.164 142.152C281.225 141.043 279.518 138.824 277.044 135.496L275.124 128.456C275.124 127.091 274.868 125.896 274.356 124.872C273.502 121.032 272.99 118.856 272.82 118.344C272.649 117.747 272.521 116.168 272.436 113.608C272.436 111.048 272.564 109.171 272.82 107.976C273.076 106.355 274.654 102.344 277.556 95.944C278.324 95.176 278.793 94.152 278.964 92.872L281.012 89.928C282.889 87.7093 284.894 86.088 287.028 85.064C287.028 84.8933 288.478 84.4667 291.38 83.784C291.977 83.6987 293.342 83.912 295.476 84.424C300.596 85.6187 303.796 87.112 305.076 88.904L305.46 89.544C307.081 91.848 308.02 95.3893 308.276 100.168C308.02 102.301 307.806 104.093 307.636 105.544C307.465 106.995 306.526 109.64 304.819 113.48C303.54 115.869 302.302 117.789 301.108 119.24C299.23 120.605 297.95 121.288 297.268 121.288C296.926 121.459 296.201 121.544 295.092 121.544H292.148C291.892 121.459 291.337 121.416 290.484 121.416C289.63 121.416 288.393 121.203 286.772 120.776C286.772 122.653 287.284 125.341 288.308 128.84C289.417 132.253 290.313 134.344 290.996 135.112C292.788 136.477 294.196 137.373 295.22 137.8C296.244 138.227 297.609 138.312 299.316 138.056C301.022 137.715 302.26 137.117 303.028 136.264L306.356 132.168C308.489 129.267 310.665 129.011 312.884 131.4C313.908 132.509 314.292 133.619 314.036 134.728C313.865 135.752 313.012 137.843 311.476 141C310.196 143.048 308.83 144.755 307.38 146.12C304.734 147.485 303.156 148.168 302.644 148.168C301.876 148.253 300.681 148.125 299.06 147.784C298.206 148.211 296.756 148.168 294.708 147.656C294.708 147.485 294.452 147.357 293.94 147.272C293.513 147.272 292.916 147.144 292.148 146.888L292.404 146.76C292.233 146.76 291.721 146.76 290.868 146.76L287.284 144.84H286.388ZM345.521 100.04V98.632C345.521 97.6933 345.478 97.224 345.393 97.224L344.625 96.968C344.027 96.968 343.558 96.8827 343.217 96.712C342.619 96.8827 342.15 97.1387 341.809 97.48C340.699 98.1627 339.931 98.9733 339.505 99.912L336.689 105.544C335.409 108.189 334.683 111.603 334.513 115.784C336.731 116.723 338.353 116.68 339.377 115.656C339.974 115.144 340.486 114.547 340.913 113.864C341.083 113.267 341.425 112.712 341.937 112.2C342.449 111.603 342.961 110.195 343.473 107.976C344.838 105.843 345.521 103.197 345.521 100.04ZM356.913 101.832V103.24C356.742 108.445 355.206 113.139 352.305 117.32C351.878 117.917 351.281 118.6 350.513 119.368L347.697 122.184C347.099 122.781 346.331 123.336 345.393 123.848L342.577 124.616C342.321 124.445 341.595 124.275 340.401 124.104C339.462 124.445 338.651 124.36 337.969 123.848C337.883 123.848 337.414 123.677 336.561 123.336C335.793 122.995 334.811 122.781 333.617 122.696C333.787 124.061 333.873 125.555 333.873 127.176L335.409 133.064C336.347 134.856 337.243 136.008 338.097 136.52C339.035 136.947 340.017 137.203 341.041 137.288C342.15 137.288 342.961 137.16 343.473 136.904C344.07 136.648 345.051 136.264 346.417 135.752L348.977 134.472C350.769 133.448 352.305 133.704 353.585 135.24C354.267 136.008 354.566 137.032 354.481 138.312C354.395 139.507 353.883 140.616 352.944 141.64C352.433 142.835 351.11 143.944 348.977 144.968C348.891 144.968 348.507 145.139 347.825 145.48C343.985 147.357 339.718 147.613 335.025 146.248L332.593 145.096C332.337 145.096 332.081 144.968 331.825 144.712C330.801 144.456 329.691 143.816 328.497 142.792C327.302 141.768 326.449 140.915 325.937 140.232C325.51 139.549 325.211 139.08 325.041 138.824C324.87 138.568 324.571 138.013 324.145 137.16C322.694 134.429 321.627 131.827 320.945 129.352L320.177 125.64C320.347 125.299 320.39 124.317 320.305 122.696V120.648C319.537 119.283 320.006 116.168 321.713 111.304C323.078 104.819 324.187 101.021 325.041 99.912L326.705 96.584C326.705 96.4987 327.217 95.8587 328.241 94.664C328.411 94.2373 329.393 93.384 331.185 92.104C331.526 91.592 332.038 91.2933 332.721 91.208C333.062 90.8667 333.617 90.568 334.385 90.312C335.067 89.7147 336.091 89.3307 337.457 89.16C338.737 88.7333 340.699 88.6053 343.345 88.776C349.403 89.288 353.542 91.848 355.761 96.456L356.657 99.272C356.657 99.6987 356.785 100.211 357.041 100.808C356.955 100.979 356.913 101.32 356.913 101.832ZM365.933 132.168C367.554 121.075 368.365 115.357 368.365 115.016L369.005 111.432C369.261 111.176 369.389 109.256 369.389 105.672V103.112L369.645 100.424C369.389 98.632 369.26 97.224 369.26 96.2C368.919 94.5787 369.09 92.9573 369.773 91.336C371.053 89.6293 373.229 89.1173 376.301 89.8C377.41 90.1413 378.391 90.6533 379.245 91.336C380.439 91.7627 381.293 92.1893 381.805 92.616C382.487 92.872 382.829 94.4507 382.829 97.352C383.853 96.328 386.114 95.176 389.613 93.896C390.125 93.896 391.191 93.7253 392.812 93.384C394.434 92.9573 395.799 92.744 396.909 92.744C398.018 92.744 398.871 92.872 399.469 93.128C401.175 94.152 402.114 94.8347 402.285 95.176C402.455 95.432 402.626 95.8587 402.797 96.456C403.053 97.0533 403.138 97.352 403.053 97.352C403.821 98.12 404.034 98.9733 403.693 99.912C402.925 101.021 401.73 101.661 400.109 101.832C398.573 101.832 395.671 103.112 391.405 105.672L387.565 107.592C384.237 109.896 382.402 111.176 382.061 111.432C380.61 129.779 379.671 139.933 379.245 141.896C378.989 142.664 378.391 143.432 377.453 144.2C376.514 144.968 375.362 144.84 373.997 143.816L372.205 143.176C370.754 142.579 369.474 141.555 368.365 140.104L366.829 138.056L366.061 135.88C366.061 135.368 366.018 134.856 365.933 134.344V132.168ZM405.455 123.08H405.583C407.204 122.824 408.825 123.293 410.447 124.488L411.727 125.896C411.812 126.237 412.367 126.749 413.391 127.432C413.476 127.688 413.348 128.797 413.007 130.76C413.604 131.187 414.116 132.339 414.543 134.216C414.628 136.008 414.329 138.995 413.647 143.176C413.817 143.603 413.689 144.029 413.263 144.456C412.324 145.395 410.532 145.437 407.887 144.584C407.887 144.669 407.801 144.669 407.631 144.584C407.545 144.584 407.204 144.499 406.607 144.328C406.095 144.243 405.668 144.157 405.327 144.072C405.071 144.072 404.047 143.859 402.255 143.432C400.719 142.835 399.951 142.408 399.951 142.152C399.012 141.213 398.543 140.445 398.543 139.848C398.031 138.824 397.945 137.629 398.286 136.264C398.628 134.899 398.884 133.789 399.055 132.936L400.207 130.76C400.207 130.163 400.676 128.883 401.615 126.92C401.785 125.811 401.999 125.128 402.255 124.872C403.62 124.019 404.687 123.421 405.455 123.08Z" fill="white"/>
<path d="M48.3125 161.736H419.663V168.648H48.3125V161.736Z" fill="white"/>
</svg>
